<svg xmlns="http://www.w3.org/2000/svg" xmlns:xlink="http://www.w3.org/1999/xlink" width="500" zoomAndPan="magnify" viewBox="0 0 375 374.999991" height="500" preserveAspectRatio="xMidYMid meet" version="1.0"><defs><clipPath id="da67a3437d"><path d="M 96.96875 15.320312 L 157.320312 15.320312 L 157.320312 84.394531 L 96.96875 84.394531 Z M 96.96875 15.320312 " clip-rule="nonzero"/></clipPath><clipPath id="bbcb54b6ad"><path d="M 157.320312 49.90625 L 96.96875 15.417969 L 96.96875 84.394531 Z M 157.320312 49.90625 " clip-rule="nonzero"/></clipPath><clipPath id="757a82848c"><path d="M 0.96875 0.359375 L 61.320312 0.359375 L 61.320312 69.394531 L 0.96875 69.394531 Z M 0.96875 0.359375 " clip-rule="nonzero"/></clipPath><clipPath id="0139a041d4"><path d="M 61.320312 34.90625 L 0.96875 0.417969 L 0.96875 69.394531 Z M 61.320312 34.90625 " clip-rule="nonzero"/></clipPath><clipPath id="da31ed7f46"><rect x="0" width="62" y="0" height="70"/></clipPath><clipPath id="45ac8a2732"><path d="M 96.96875 49.914062 L 157.320312 49.914062 L 157.320312 118.988281 L 96.96875 118.988281 Z M 96.96875 49.914062 " clip-rule="nonzero"/></clipPath><clipPath id="74a1403817"><path d="M 96.96875 84.402344 L 157.320312 118.886719 L 157.320312 49.914062 Z M 96.96875 84.402344 " clip-rule="nonzero"/></clipPath><clipPath id="f9ec816378"><path d="M 0.96875 0.914062 L 61.320312 0.914062 L 61.320312 69.988281 L 0.96875 69.988281 Z M 0.96875 0.914062 " clip-rule="nonzero"/></clipPath><clipPath id="7a3d90312b"><path d="M 0.96875 35.402344 L 61.320312 69.886719 L 61.320312 0.914062 Z M 0.96875 35.402344 " clip-rule="nonzero"/></clipPath><clipPath id="354ef937c6"><rect x="0" width="62" y="0" height="70"/></clipPath><clipPath id="cc05077d53"><path d="M 96.96875 84.007812 L 157.320312 84.007812 L 157.320312 153.082031 L 96.96875 153.082031 Z M 96.96875 84.007812 " clip-rule="nonzero"/></clipPath><clipPath id="74d06c1d28"><path d="M 157.320312 118.597656 L 96.96875 84.109375 L 96.96875 153.082031 Z M 157.320312 118.597656 " clip-rule="nonzero"/></clipPath><clipPath id="452e5e067b"><path d="M 0.96875 0.0078125 L 61.320312 0.0078125 L 61.320312 69.082031 L 0.96875 69.082031 Z M 0.96875 0.0078125 " clip-rule="nonzero"/></clipPath><clipPath id="4928d3fcee"><path d="M 61.320312 34.597656 L 0.96875 0.109375 L 0.96875 69.082031 Z M 61.320312 34.597656 " clip-rule="nonzero"/></clipPath><clipPath id="5971463059"><rect x="0" width="62" y="0" height="70"/></clipPath><clipPath id="dbbdde2146"><path d="M 96.96875 118.710938 L 157.320312 118.710938 L 157.320312 187.785156 L 96.96875 187.785156 Z M 96.96875 118.710938 " clip-rule="nonzero"/></clipPath><clipPath id="7fba3a9369"><path d="M 96.96875 153.195312 L 157.320312 187.683594 L 157.320312 118.710938 Z M 96.96875 153.195312 " clip-rule="nonzero"/></clipPath><clipPath id="50b0d9e90c"><path d="M 0.96875 0.710938 L 61.320312 0.710938 L 61.320312 69.785156 L 0.96875 69.785156 Z M 0.96875 0.710938 " clip-rule="nonzero"/></clipPath><clipPath id="9e082691b3"><path d="M 0.96875 35.195312 L 61.320312 69.683594 L 61.320312 0.710938 Z M 0.96875 35.195312 " clip-rule="nonzero"/></clipPath><clipPath id="657205ae92"><rect x="0" width="62" y="0" height="70"/></clipPath><clipPath id="06a3965b0b"><path d="M 96.96875 152.820312 L 157.320312 152.820312 L 157.320312 221.894531 L 96.96875 221.894531 Z M 96.96875 152.820312 " clip-rule="nonzero"/></clipPath><clipPath id="bc0d771a40"><path d="M 157.320312 187.40625 L 96.96875 152.917969 L 96.96875 221.894531 Z M 157.320312 187.40625 " clip-rule="nonzero"/></clipPath><clipPath id="01e3b627a7"><path d="M 0.96875 0.878906 L 61.320312 0.878906 L 61.320312 69.894531 L 0.96875 69.894531 Z M 0.96875 0.878906 " clip-rule="nonzero"/></clipPath><clipPath id="2aae030f7a"><path d="M 61.320312 35.40625 L 0.96875 0.917969 L 0.96875 69.894531 Z M 61.320312 35.40625 " clip-rule="nonzero"/></clipPath><clipPath id="ecc23c0bd9"><rect x="0" width="62" y="0" height="70"/></clipPath><clipPath id="8556e932fd"><path d="M 96.96875 187.519531 L 157.320312 187.519531 L 157.320312 256.59375 L 96.96875 256.59375 Z M 96.96875 187.519531 " clip-rule="nonzero"/></clipPath><clipPath id="15bafa06af"><path d="M 96.96875 222.007812 L 157.320312 256.492188 L 157.320312 187.519531 Z M 96.96875 222.007812 " clip-rule="nonzero"/></clipPath><clipPath id="596e823ddc"><path d="M 0.96875 0.519531 L 61.320312 0.519531 L 61.320312 69.558594 L 0.96875 69.558594 Z M 0.96875 0.519531 " clip-rule="nonzero"/></clipPath><clipPath id="de6fe9fb7f"><path d="M 0.96875 35.007812 L 61.320312 69.492188 L 61.320312 0.519531 Z M 0.96875 35.007812 " clip-rule="nonzero"/></clipPath><clipPath id="91e3cc482a"><rect x="0" width="62" y="0" height="70"/></clipPath><clipPath id="729409ccab"><path d="M 96.96875 221.628906 L 157.320312 221.628906 L 157.320312 290.703125 L 96.96875 290.703125 Z M 96.96875 221.628906 " clip-rule="nonzero"/></clipPath><clipPath id="dd67cf95d1"><path d="M 157.320312 256.21875 L 96.96875 221.730469 L 96.96875 290.703125 Z M 157.320312 256.21875 " clip-rule="nonzero"/></clipPath><clipPath id="cbf6047f5e"><path d="M 0.96875 0.628906 L 61.320312 0.628906 L 61.320312 69.703125 L 0.96875 69.703125 Z M 0.96875 0.628906 " clip-rule="nonzero"/></clipPath><clipPath id="2b8cec4d62"><path d="M 61.320312 35.21875 L 0.96875 0.730469 L 0.96875 69.703125 Z M 61.320312 35.21875 " clip-rule="nonzero"/></clipPath><clipPath id="abb8198eda"><rect x="0" width="62" y="0" height="70"/></clipPath><clipPath id="a39d10b153"><path d="M 96.96875 256.332031 L 157.320312 256.332031 L 157.320312 325.40625 L 96.96875 325.40625 Z M 96.96875 256.332031 " clip-rule="nonzero"/></clipPath><clipPath id="9b2a46275d"><path d="M 96.96875 290.816406 L 157.320312 325.304688 L 157.320312 256.332031 Z M 96.96875 290.816406 " clip-rule="nonzero"/></clipPath><clipPath id="3352b325d7"><path d="M 0.96875 0.332031 L 61.320312 0.332031 L 61.320312 69.40625 L 0.96875 69.40625 Z M 0.96875 0.332031 " clip-rule="nonzero"/></clipPath><clipPath id="b1dada0788"><path d="M 0.96875 34.816406 L 61.320312 69.304688 L 61.320312 0.332031 Z M 0.96875 34.816406 " clip-rule="nonzero"/></clipPath><clipPath id="305004eae8"><rect x="0" width="62" y="0" height="70"/></clipPath><clipPath id="3d3bf5a012"><path d="M 157.320312 187.246094 L 217.671875 187.246094 L 217.671875 256.320312 L 157.320312 256.320312 Z M 157.320312 187.246094 " clip-rule="nonzero"/></clipPath><clipPath id="6fc79267b6"><path d="M 217.671875 221.835938 L 157.320312 187.347656 L 157.320312 256.320312 Z M 217.671875 221.835938 " clip-rule="nonzero"/></clipPath><clipPath id="32f0948d73"><path d="M 0.320312 0.246094 L 60.671875 0.246094 L 60.671875 69.320312 L 0.320312 69.320312 Z M 0.320312 0.246094 " clip-rule="nonzero"/></clipPath><clipPath id="544b3b8069"><path d="M 60.671875 34.835938 L 0.320312 0.347656 L 0.320312 69.320312 Z M 60.671875 34.835938 " clip-rule="nonzero"/></clipPath><clipPath id="cefcd6e0f4"><rect x="0" width="61" y="0" height="70"/></clipPath><clipPath id="712d4400f8"><path d="M 157.320312 221.738281 L 217.671875 221.738281 L 217.671875 290.8125 L 157.320312 290.8125 Z M 157.320312 221.738281 " clip-rule="nonzero"/></clipPath><clipPath id="bebd278f1d"><path d="M 157.320312 256.226562 L 217.671875 290.710938 L 217.671875 221.738281 Z M 157.320312 256.226562 " clip-rule="nonzero"/></clipPath><clipPath id="7bdf663a2b"><path d="M 0.320312 0.738281 L 60.671875 0.738281 L 60.671875 69.8125 L 0.320312 69.8125 Z M 0.320312 0.738281 " clip-rule="nonzero"/></clipPath><clipPath id="50da75984c"><path d="M 0.320312 35.226562 L 60.671875 69.710938 L 60.671875 0.738281 Z M 0.320312 35.226562 " clip-rule="nonzero"/></clipPath><clipPath id="04986730ea"><rect x="0" width="61" y="0" height="70"/></clipPath><clipPath id="910e3fe854"><path d="M 217.671875 256.226562 L 278.023438 256.226562 L 278.023438 325.300781 L 217.671875 325.300781 Z M 217.671875 256.226562 " clip-rule="nonzero"/></clipPath><clipPath id="76a75f2ca3"><path d="M 217.671875 290.710938 L 278.023438 325.199219 L 278.023438 256.226562 Z M 217.671875 290.710938 " clip-rule="nonzero"/></clipPath><clipPath id="9f79192b47"><path d="M 0.671875 0.226562 L 61.023438 0.226562 L 61.023438 69.199219 L 0.671875 69.199219 Z M 0.671875 0.226562 " clip-rule="nonzero"/></clipPath><clipPath id="cc83bf009e"><path d="M 0.671875 34.710938 L 61.023438 69.199219 L 61.023438 0.226562 Z M 0.671875 34.710938 " clip-rule="nonzero"/></clipPath><clipPath id="affbdf511d"><rect x="0" width="62" y="0" height="70"/></clipPath><clipPath id="aa409cdbe1"><path d="M 217.671875 221.898438 L 278.023438 221.898438 L 278.023438 290.972656 L 217.671875 290.972656 Z M 217.671875 221.898438 " clip-rule="nonzero"/></clipPath><clipPath id="a781814624"><path d="M 278.023438 256.484375 L 217.671875 221.996094 L 217.671875 290.972656 Z M 278.023438 256.484375 " clip-rule="nonzero"/></clipPath><clipPath id="bff79cc81c"><path d="M 0.671875 0.898438 L 61.023438 0.898438 L 61.023438 69.972656 L 0.671875 69.972656 Z M 0.671875 0.898438 " clip-rule="nonzero"/></clipPath><clipPath id="e10b6b81f0"><path d="M 61.023438 35.484375 L 0.671875 0.996094 L 0.671875 69.972656 Z M 61.023438 35.484375 " clip-rule="nonzero"/></clipPath><clipPath id="9c30d04a68"><rect x="0" width="62" y="0" height="70"/></clipPath><clipPath id="e8690f3cef"><path d="M 217.671875 187.253906 L 278.023438 187.253906 L 278.023438 256.328125 L 217.671875 256.328125 Z M 217.671875 187.253906 " clip-rule="nonzero"/></clipPath><clipPath id="45c40e9cf8"><path d="M 217.671875 221.738281 L 278.023438 256.226562 L 278.023438 187.253906 Z M 217.671875 221.738281 " clip-rule="nonzero"/></clipPath><clipPath id="57cfb514af"><path d="M 0.671875 0.253906 L 61.023438 0.253906 L 61.023438 69.320312 L 0.671875 69.320312 Z M 0.671875 0.253906 " clip-rule="nonzero"/></clipPath><clipPath id="92b10f0a29"><path d="M 0.671875 34.738281 L 61.023438 69.226562 L 61.023438 0.253906 Z M 0.671875 34.738281 " clip-rule="nonzero"/></clipPath><clipPath id="77e98a730f"><rect x="0" width="62" y="0" height="70"/></clipPath><clipPath id="f15b6449df"><path d="M 217.671875 152.65625 L 278.023438 152.65625 L 278.023438 221.730469 L 217.671875 221.730469 Z M 217.671875 152.65625 " clip-rule="nonzero"/></clipPath><clipPath id="aedb23c4fc"><path d="M 278.023438 187.242188 L 217.671875 152.757812 L 217.671875 221.730469 Z M 278.023438 187.242188 " clip-rule="nonzero"/></clipPath><clipPath id="80740cc140"><path d="M 0.671875 0.65625 L 61.023438 0.65625 L 61.023438 69.730469 L 0.671875 69.730469 Z M 0.671875 0.65625 " clip-rule="nonzero"/></clipPath><clipPath id="a2757f12c2"><path d="M 61.023438 35.242188 L 0.671875 0.757812 L 0.671875 69.730469 Z M 61.023438 35.242188 " clip-rule="nonzero"/></clipPath><clipPath id="ce0ef6e10b"><rect x="0" width="62" y="0" height="70"/></clipPath><clipPath id="279955e8e8"><path d="M 217.671875 290.601562 L 278.023438 290.601562 L 278.023438 359.675781 L 217.671875 359.675781 Z M 217.671875 290.601562 " clip-rule="nonzero"/></clipPath><clipPath id="1779ff2fca"><path d="M 278.023438 325.191406 L 217.671875 290.703125 L 217.671875 359.675781 Z M 278.023438 325.191406 " clip-rule="nonzero"/></clipPath><clipPath id="472f7a32e3"><path d="M 0.671875 0.640625 L 61.023438 0.640625 L 61.023438 69.675781 L 0.671875 69.675781 Z M 0.671875 0.640625 " clip-rule="nonzero"/></clipPath><clipPath id="afad33f0c0"><path d="M 61.023438 35.191406 L 0.671875 0.703125 L 0.671875 69.675781 Z M 61.023438 35.191406 " clip-rule="nonzero"/></clipPath><clipPath id="e8dee3b853"><rect x="0" width="62" y="0" height="70"/></clipPath></defs><g clip-path="url(#da67a3437d)"><g clip-path="url(#bbcb54b6ad)"><g transform="matrix(1, 0, 0, 1, 96, 15)"><g clip-path="url(#da31ed7f46)"><g clip-path="url(#757a82848c)"><g clip-path="url(#0139a041d4)"><path fill="#ff312e" d="M 0.96875 69.394531 L 0.96875 0.320312 L 61.320312 0.320312 L 61.320312 69.394531 Z M 0.96875 69.394531 " fill-opacity="1" fill-rule="nonzero"/></g></g></g></g></g></g><g clip-path="url(#45ac8a2732)"><g clip-path="url(#74a1403817)"><g transform="matrix(1, 0, 0, 1, 96, 49)"><g clip-path="url(#354ef937c6)"><g clip-path="url(#f9ec816378)"><g clip-path="url(#7a3d90312b)"><path fill="#d0252e" d="M 61.320312 0.914062 L 61.320312 69.988281 L 0.96875 69.988281 L 0.96875 0.914062 Z M 61.320312 0.914062 " fill-opacity="1" fill-rule="nonzero"/></g></g></g></g></g></g><g clip-path="url(#cc05077d53)"><g clip-path="url(#74d06c1d28)"><g transform="matrix(1, 0, 0, 1, 96, 84)"><g clip-path="url(#5971463059)"><g clip-path="url(#452e5e067b)"><g clip-path="url(#4928d3fcee)"><path fill="#ff312e" d="M 0.96875 69.082031 L 0.96875 0.0078125 L 61.320312 0.0078125 L 61.320312 69.082031 Z M 0.96875 69.082031 " fill-opacity="1" fill-rule="nonzero"/></g></g></g></g></g></g><g clip-path="url(#dbbdde2146)"><g clip-path="url(#7fba3a9369)"><g transform="matrix(1, 0, 0, 1, 96, 118)"><g clip-path="url(#657205ae92)"><g clip-path="url(#50b0d9e90c)"><g clip-path="url(#9e082691b3)"><path fill="#f6f7eb" d="M 61.320312 0.710938 L 61.320312 69.785156 L 0.96875 69.785156 L 0.96875 0.710938 Z M 61.320312 0.710938 " fill-opacity="1" fill-rule="nonzero"/></g></g></g></g></g></g><g clip-path="url(#06a3965b0b)"><g clip-path="url(#bc0d771a40)"><g transform="matrix(1, 0, 0, 1, 96, 152)"><g clip-path="url(#ecc23c0bd9)"><g clip-path="url(#01e3b627a7)"><g clip-path="url(#2aae030f7a)"><path fill="#ff312e" d="M 0.96875 69.894531 L 0.96875 0.820312 L 61.320312 0.820312 L 61.320312 69.894531 Z M 0.96875 69.894531 " fill-opacity="1" fill-rule="nonzero"/></g></g></g></g></g></g><g clip-path="url(#8556e932fd)"><g clip-path="url(#15bafa06af)"><g transform="matrix(1, 0, 0, 1, 96, 187)"><g clip-path="url(#91e3cc482a)"><g clip-path="url(#596e823ddc)"><g clip-path="url(#de6fe9fb7f)"><path fill="#131200" d="M 61.320312 0.519531 L 61.320312 69.59375 L 0.96875 69.59375 L 0.96875 0.519531 Z M 61.320312 0.519531 " fill-opacity="1" fill-rule="nonzero"/></g></g></g></g></g></g><g clip-path="url(#729409ccab)"><g clip-path="url(#dd67cf95d1)"><g transform="matrix(1, 0, 0, 1, 96, 221)"><g clip-path="url(#abb8198eda)"><g clip-path="url(#cbf6047f5e)"><g clip-path="url(#2b8cec4d62)"><path fill="#f6f7eb" d="M 0.96875 69.703125 L 0.96875 0.628906 L 61.320312 0.628906 L 61.320312 69.703125 Z M 0.96875 69.703125 " fill-opacity="1" fill-rule="nonzero"/></g></g></g></g></g></g><g clip-path="url(#a39d10b153)"><g clip-path="url(#9b2a46275d)"><g transform="matrix(1, 0, 0, 1, 96, 256)"><g clip-path="url(#305004eae8)"><g clip-path="url(#3352b325d7)"><g clip-path="url(#b1dada0788)"><path fill="#ff312e" d="M 61.320312 0.332031 L 61.320312 69.40625 L 0.96875 69.40625 L 0.96875 0.332031 Z M 61.320312 0.332031 " fill-opacity="1" fill-rule="nonzero"/></g></g></g></g></g></g><g clip-path="url(#3d3bf5a012)"><g clip-path="url(#6fc79267b6)"><g transform="matrix(1, 0, 0, 1, 157, 187)"><g clip-path="url(#cefcd6e0f4)"><g clip-path="url(#32f0948d73)"><g clip-path="url(#544b3b8069)"><path fill="#d0252e" d="M 0.320312 69.320312 L 0.320312 0.246094 L 60.671875 0.246094 L 60.671875 69.320312 Z M 0.320312 69.320312 " fill-opacity="1" fill-rule="nonzero"/></g></g></g></g></g></g><g clip-path="url(#712d4400f8)"><g clip-path="url(#bebd278f1d)"><g transform="matrix(1, 0, 0, 1, 157, 221)"><g clip-path="url(#04986730ea)"><g clip-path="url(#7bdf663a2b)"><g clip-path="url(#50da75984c)"><path fill="#ff312e" d="M 60.671875 0.738281 L 60.671875 69.8125 L 0.320312 69.8125 L 0.320312 0.738281 Z M 60.671875 0.738281 " fill-opacity="1" fill-rule="nonzero"/></g></g></g></g></g></g><g clip-path="url(#910e3fe854)"><g clip-path="url(#76a75f2ca3)"><g transform="matrix(1, 0, 0, 1, 217, 256)"><g clip-path="url(#affbdf511d)"><g clip-path="url(#9f79192b47)"><g clip-path="url(#cc83bf009e)"><path fill="#d0252e" d="M 61.023438 0.226562 L 61.023438 69.300781 L 0.671875 69.300781 L 0.671875 0.226562 Z M 61.023438 0.226562 " fill-opacity="1" fill-rule="nonzero"/></g></g></g></g></g></g><g clip-path="url(#aa409cdbe1)"><g clip-path="url(#a781814624)"><g transform="matrix(1, 0, 0, 1, 217, 221)"><g clip-path="url(#9c30d04a68)"><g clip-path="url(#bff79cc81c)"><g clip-path="url(#e10b6b81f0)"><path fill="#131200" d="M 0.671875 69.972656 L 0.671875 0.898438 L 61.023438 0.898438 L 61.023438 69.972656 Z M 0.671875 69.972656 " fill-opacity="1" fill-rule="nonzero"/></g></g></g></g></g></g><g clip-path="url(#e8690f3cef)"><g clip-path="url(#45c40e9cf8)"><g transform="matrix(1, 0, 0, 1, 217, 187)"><g clip-path="url(#77e98a730f)"><g clip-path="url(#57cfb514af)"><g clip-path="url(#92b10f0a29)"><path fill="#f6f7eb" d="M 61.023438 0.253906 L 61.023438 69.328125 L 0.671875 69.328125 L 0.671875 0.253906 Z M 61.023438 0.253906 " fill-opacity="1" fill-rule="nonzero"/></g></g></g></g></g></g><g clip-path="url(#f15b6449df)"><g clip-path="url(#aedb23c4fc)"><g transform="matrix(1, 0, 0, 1, 217, 152)"><g clip-path="url(#ce0ef6e10b)"><g clip-path="url(#80740cc140)"><g clip-path="url(#a2757f12c2)"><path fill="#ff312e" d="M 0.671875 69.730469 L 0.671875 0.65625 L 61.023438 0.65625 L 61.023438 69.730469 Z M 0.671875 69.730469 " fill-opacity="1" fill-rule="nonzero"/></g></g></g></g></g></g><g clip-path="url(#279955e8e8)"><g clip-path="url(#1779ff2fca)"><g transform="matrix(1, 0, 0, 1, 217, 290)"><g clip-path="url(#e8dee3b853)"><g clip-path="url(#472f7a32e3)"><g clip-path="url(#afad33f0c0)"><path fill="#f6f7eb" d="M 0.671875 69.675781 L 0.671875 0.601562 L 61.023438 0.601562 L 61.023438 69.675781 Z M 0.671875 69.675781 " fill-opacity="1" fill-rule="nonzero"/></g></g></g></g></g></g></svg>